Coordinates
version=1
nRows=19
nColumns=33
inDegrees=yes

Units are S.I. units (second, meters, Newtons, ...)
Angles are in degrees.

endheader
time	ground_thorax_rot_x	ground_thorax_rot_y	ground_thorax_rot_z	ground_thorax_tx	ground_thorax_ty	ground_thorax_tz	clav_prot_r	clav_elev_r	scapula_abduction_r	scapula_elevation_r	scapula_upward_rot_r	scapula_winging_r	shoulder_elv_r	plane_of_elev_r	axial_rot_r	elbow_flexion_r	pro_sup_r	wrist_flex_r	wrist_dev_r	clav_prot_l	clav_elev_l	scapula_abduction_l	scapula_elevation_l	scapula_upward_rot_l	scapula_winging_l	shoulder_elv_l	plane_of_elev_l	axial_rot_l	elbow_flexion_l	pro_sup_l	wrist_flex_l	wrist_dev_l
      6.13000000	     -4.69825138	      4.01489848	      9.99832584	     -0.09458586	      1.02736358	      0.00793426	     15.43005664	    -12.22532996	     36.23965616	    -11.02570421	     17.39599452	    -10.33953086	     -8.71782138	    -58.45205652	    119.69640484	    -51.05472830	   -162.56616162	      9.28438553	      1.09794109	     20.16933637	     -9.43251319	    -29.51350234	     -8.60542741	    -27.09117687	      7.98418510	     62.20666352	     -4.56584837	     12.61624080	     33.14788181	     17.24563596	     18.98514260	    -12.41629842
      6.14000000	     -4.64467521	      3.95214121	     10.03813767	     -0.09493680	      1.02771666	      0.00816086	     15.17235405	    -12.46698984	     35.34528718	    -11.01652073	     16.65164660	     -9.85374440	     -9.36837165	    -59.13007552	    119.55481386	    -52.76016623	   -164.13528174	      9.88771240	      0.82286452	     19.78065933	     -9.27507232	    -28.87011051	     -8.92890480	    -27.44072030	      7.62238600	     62.35724547	     -5.32164555	     12.57474251	     34.95919630	     16.96134716	     19.27264653	    -12.47872879
      6.15000000	     -4.44311313	      3.85031798	     10.19718541	     -0.09548029	      1.02759195	      0.00847520	     14.96567016	    -12.20932011	     34.62177016	    -10.60178209	     16.01239422	     -9.72791051	     -9.98625002	    -59.65433338	    119.55236309	    -54.32182715	   -164.53098399	     10.34880763	      0.71680763	     19.50086867	     -8.98238391	    -28.42290847	     -9.41681085	    -27.89540737	      7.38298173	     62.17632999	     -5.86341834	     12.84198285	     36.69488283	     16.68978100	     19.26235140	    -12.74032180
      6.16000000	     -4.25704127	      3.84318105	      9.95806983	     -0.09600079	      1.02743335	      0.00882236	     14.81431738	    -11.86753667	     34.05802870	    -10.14385176	     15.48171374	     -9.70732105	    -10.42362380	    -59.99524163	    119.46115807	    -55.97629985	   -164.70722225	     10.79468471	      0.63098423	     19.28188700	     -8.66574198	    -28.07789312	     -9.85216871	    -28.19833174	      7.21271654	     62.14560715	     -6.22829581	     13.14352785	     38.42454889	     16.44459696	     19.21190740	    -13.03978540
      6.17000000	     -4.32141817	      3.70157926	     10.22779899	     -0.09622048	      1.02856053	      0.00892354	     14.48006266	    -12.80865309	     32.81169551	    -10.62568533	     14.39365810	     -8.68948223	    -11.38470674	    -61.15043428	    118.91009157	    -57.75069365	   -167.02790286	     11.86848378	     -0.10963200	     18.69748516	     -8.81335891	    -27.08607553	     -9.95624417	    -28.63081491	      6.60492185	     62.68586458	     -7.80364835	     12.41848909	     40.54612786	     15.70827826	     19.37843439	    -12.65156034
      6.18000000	     -4.07875119	      3.68514892	     10.03770088	     -0.09682793	      1.02814008	      0.00916743	     14.31654312	    -12.37017884	     32.26072201	    -10.08832225	     13.90171865	     -8.72750031	    -11.81506852	    -61.61589727	    118.91841795	    -59.37324605	   -167.14216201	     12.30425360	     -0.17115707	     18.50405751	     -8.38323294	    -26.79482311	    -10.52100048	    -28.99205819	      6.47370358	     62.55960783	     -8.13121961	     12.48717662	     42.35506377	     15.46322078	     19.33055613	    -12.97822510
      6.19000000	     -3.94452269	      3.55139965	     10.63897254	     -0.09761300	      1.02777175	      0.00942031	     14.17758691	    -12.12876977	     31.43818595	     -9.55393814	     12.90657680	     -8.56185590	    -12.66999443	    -62.37011136	    118.91859447	    -60.94308510	   -167.46476244	     12.89765132	     -0.37312664	     18.21670041	     -8.06786907	    -26.35032262	    -11.13231034	    -29.65307813	      6.20265447	     62.43342845	     -9.14663021	     12.16615241	     44.28715758	     15.16514674	     19.27715053	    -13.23409452
      6.20000000	     -3.97574520	      3.50758057	     10.63007602	     -0.09817980	      1.02847007	      0.00965369	     14.03172139	    -12.78293692	     30.44811005	     -9.71938694	     11.68179437	     -7.83650106	    -13.31667587	    -63.16563942	    118.25639406	    -62.74902013	   -168.72075351	     14.16706342	     -1.27060181	     17.81084735	     -8.12748848	    -25.66813147	    -11.23662299	    -29.94016263	      5.79928165	     63.05677741	    -10.66031448	     11.16285193	     46.41302062	     14.50984201	     18.97528262	    -12.99751559
      6.21000000	     -3.75571033	      3.36256780	     10.67237042	     -0.09867126	      1.02812205	      0.00987171	     13.75220185	    -12.40770131	     29.69314499	     -9.21699092	     11.15494139	     -7.73450611	    -13.98533553	    -63.88806206	    118.37148182	    -64.38962034	   -168.88787625	     14.72924525	     -1.39422648	     17.52641439	     -7.68649502	    -25.22701592	    -11.85854546	    -30.38241257	      5.56253026	     62.82770194	    -11.26907051	     11.37936573	     48.20804614	     14.19181108	     18.84295017	    -13.21790661
      6.22000000	     -3.80856688	      3.31657430	     10.65788324	     -0.09868860	      1.02920176	      0.00972103	     13.23270273	    -13.33621418	     28.19973602	     -9.68265873	     10.09059712	     -6.61177448	    -14.79330258	    -65.13198148	    117.76791236	    -65.91047822	   -170.22820201	     16.57594634	     -2.71836426	     16.86143644	     -7.61576594	    -24.09107874	    -11.98093847	    -30.43267018	      4.96988421	     63.19241930	    -12.79533671	     10.40325114	     50.35123975	     13.27905070	     17.97207708	    -12.58674672
      6.23000000	     -3.59319183	      3.19436410	     10.75121331	     -0.09942858	      1.02861688	      0.00998456	     13.02005489	    -12.87097293	     27.51058647	     -9.05955790	      9.47688743	     -6.59786457	    -15.42332248	    -65.84070824	    117.89453209	    -67.54288459	   -170.25344244	     17.11906496	     -2.81268361	     16.63639152	     -7.13219854	    -23.75323356	    -12.65714842	    -30.90665773	      4.78292750	     63.00276606	    -13.46745323	     10.35648897	     52.15146727	     13.03931569	     17.85330708	    -12.86267181
      6.24000000	     -3.52924347	      3.16084228	     10.93357527	     -0.10006041	      1.02903326	      0.01001948	     12.81266767	    -13.27477742	     26.43694257	     -8.96773413	      8.20113445	     -5.96690408	    -16.04088693	    -66.79548969	    117.34660609	    -69.02094419	   -170.34880939	     18.72686639	     -3.87960028	     16.20980132	     -7.04182066	    -23.04498153	    -12.91457547	    -31.22690601	      4.38855802	     63.28286793	    -14.90102829	      9.49996030	     54.23676637	     12.74368152	     17.07464645	    -12.81120099
      6.25000000	     -3.42786417	      3.05664527	     10.93688590	     -0.10031397	      1.02936082	      0.01004549	     12.33046260	    -13.48471665	     25.23717265	     -8.90511360	      7.47685096	     -5.35866286	    -16.82548323	    -67.92191525	    117.10862683	    -70.41804035	   -170.13735168	     20.35622005	     -4.91013067	     15.69837484	     -6.72467430	    -22.18291308	    -13.32386345	    -31.42201893	      3.94824534	     63.29951093	    -16.01704476	      9.03380880	     56.11059181	     12.50644006	     16.11947663	    -12.77226692
      6.26000000	     -3.18885899	      2.90599634	     11.14622783	     -0.10093795	      1.02909787	      0.01015917	     12.05224327	    -13.09445564	     24.42106485	     -8.31840012	      6.81366103	     -5.23864862	    -17.46967096	    -68.73913021	    117.12517021	    -71.71315797	   -169.94116467	     21.04567172	     -5.19073064	     15.38617425	     -6.31297977	    -21.69690142	    -13.96965972	    -31.94881143	      3.66232683	     63.02245191	    -16.86391925	      9.05396497	     57.90669991	     12.35435213	     15.82570580	    -13.06221704
      6.27000000	     -3.00743178	      2.75853674	     11.37586770	     -0.10162852	      1.02886327	      0.01033850	     11.81217326	    -12.78183673	     23.60248427	     -7.75126346	      6.03126475	     -5.07418011	    -18.15870939	    -69.59386490	    117.12400586	    -73.06323853	   -169.61410003	     21.92999989	     -5.61842261	     15.07717563	     -5.95930310	    -21.21254629	    -14.55343950	    -32.45517448	      3.36263481	     62.88053572	    -17.86337628	      9.00294740	     59.62788850	     12.29939876	     15.44531925	    -13.37981948
      6.28000000	     -2.94400861	      2.68808005	     11.21672970	     -0.10192683	      1.02990599	      0.01042920	     11.42437176	    -13.44310930	     22.37369419	     -7.94638212	      4.94830339	     -4.23318255	    -18.80606834	    -70.70057377	    116.29579027	    -74.16088098	   -168.08170093	     24.72406068	     -7.76555651	     14.48555836	     -6.00993709	    -20.19384038	    -14.59042092	    -32.56548780	      2.84626317	     63.39094028	    -19.45675521	      8.03360171	     61.41306870	     12.82372961	     13.69257891	    -13.88941920
      6.29000000	     -2.75665278	      2.49641523	     11.30941667	     -0.10245943	      1.02959888	      0.01065146	     11.10371360	    -12.92636028	     21.60918105	     -7.31341493	      4.49488182	     -4.18604500	    -19.49886697	    -71.44234378	    116.47834921	    -75.29832178	   -167.79203048	     25.26164300	     -7.96528487	     14.18508861	     -5.51729249	    -19.72376934	    -15.29210800	    -33.04350615	      2.56795537	     63.08351804	    -20.25795570	      8.21201261	     62.93701759	     12.73797868	     13.40926309	    -14.21941276
      6.30000000	     -2.65676716	      2.44437340	     11.28776722	     -0.10249901	      1.03042088	      0.01070689	     10.52554719	    -13.18764508	     20.29217054	     -7.30131840	      3.81832120	     -3.51121886	    -20.44477746	    -72.52432854	    115.80223455	    -75.94978118	   -165.54471957	     27.89602558	    -10.22096940	     13.50836644	     -5.32974462	    -18.53361195	    -15.50222944	    -33.04239433	      1.99776200	     63.37930226	    -21.72219812	      7.01838360	     64.37957855	     13.48201140	     11.18546859	    -15.29320316
      6.31000000	     -2.47127125	      2.20239999	     11.42107583	     -0.10314362	      1.03015643	      0.01085842	     10.26485241	    -12.69966907	     19.64195646	     -6.70025877	      3.39670935	     -3.49187670	    -21.12844462	    -73.32021103	    115.99183429	    -76.86062504	   -165.19757393	     28.34482821	    -10.41654580	     13.25418245	     -4.84489041	    -18.14478125	    -16.21729247	    -33.56177478	      1.73979403	     63.06274496	    -22.61468636	      7.04923763	     65.74967562	     13.43015225	     10.88974694	    -15.67048403
